<!DOCTYPE svg PUBLIC "-//W3C//DTD SVG 20010904//EN" "http://www.w3.org/TR/2001/REC-SVG-20010904/DTD/svg10.dtd">
<svg version="1.0" xmlns="http://www.w3.org/2000/svg" width="258px" height="258px" viewBox="0 0 2580 2580" preserveAspectRatio="xMidYMid meet">
<g id="layer1" fill="#f5f5f5" stroke="none">
 <path d="M899 1875 c-51 -28 -54 -54 -19 -246 l31 -174 -125 -120 c-69 -66 -130 -133 -136 -148 -11 -31 5 -82 33 -105 12 -11 307 -62 354 -62 7 0 49 -72 93 -159 79 -158 104 -191 147 -191 56 0 73 20 154 181 43 87 82 160 86 162 5 3 76 15 158 27 186 26 211 34 230 70 31 61 24 74 -117 216 l-132 134 27 157 c15 87 27 171 27 186 0 38 -49 87 -86 87 -15 0 -96 -36 -180 -80 -84 -44 -157 -80 -161 -80 -5 0 -77 36 -161 80 -84 44 -162 80 -175 80 -12 -1 -34 -7 -48 -15z m203 -141 c79 -41 155 -78 169 -81 21 -4 66 15 187 78 106 55 164 81 170 74 6 -6 0 -68 -19 -170 -16 -88 -29 -171 -29 -184 0 -18 35 -59 130 -156 111 -111 146 -155 126 -155 -2 0 -82 -11 -177 -25 -133 -20 -178 -30 -194 -45 -11 -10 -54 -87 -95 -169 -41 -83 -80 -151 -87 -151 -7 0 -49 72 -93 160 -45 91 -88 164 -100 170 -11 6 -95 22 -187 36 -93 14 -172 30 -178 35 -7 7 32 51 123 138 154 149 147 124 107 349 -29 167 -30 172 -10 172 8 0 78 -34 157 -76z"/>
 </g>
<g id="layer2" fill="#3b3b3b" stroke="none">
 <path d="M1055 2400 c-421 -91 -746 -398 -862 -816 -26 -93 -28 -112 -28 -294 0 -182 2 -201 28 -294 109 -393 414 -698 802 -803 93 -25 114 -27 295 -27 181 0 202 2 295 27 388 105 693 410 802 803 26 93 28 112 28 294 0 182 -2 201 -28 295 -109 392 -417 699 -805 802 -136 36 -392 42 -527 13z m67 -590 c84 -44 156 -80 161 -80 4 0 77 36 161 80 84 44 165 80 180 80 37 0 86 -49 86 -87 0 -15 -12 -99 -27 -186 l-27 -157 132 -134 c141 -142 148 -155 117 -216 -19 -36 -44 -44 -230 -70 -82 -12 -153 -24 -158 -27 -4 -2 -43 -75 -86 -162 -81 -161 -98 -181 -154 -181 -43 0 -68 33 -147 191 -44 87 -86 159 -93 159 -47 0 -342 51 -354 62 -28 23 -44 74 -33 105 6 15 67 82 136 148 l125 120 -31 174 c-26 146 -29 178 -19 203 13 31 51 57 86 58 13 0 91 -36 175 -80z"/>
 <path d="M930 1795 c0 -8 11 -79 25 -157 40 -225 47 -200 -107 -349 -91 -87 -130 -131 -123 -138 6 -5 85 -21 178 -35 92 -14 176 -30 187 -36 12 -6 55 -79 100 -170 44 -88 86 -160 93 -160 7 0 46 68 87 151 41 82 84 159 95 169 16 15 61 25 194 45 95 14 175 25 177 25 20 0 -15 44 -126 155 -95 97 -130 138 -130 156 0 13 13 96 29 184 19 102 25 164 19 170 -6 7 -64 -19 -170 -74 -121 -63 -166 -82 -187 -78 -14 3 -90 40 -169 81 -146 78 -172 87 -172 61z"/>
 </g>

</svg>