<!DOCTYPE svg PUBLIC "-//W3C//DTD SVG 20010904//EN" "http://www.w3.org/TR/2001/REC-SVG-20010904/DTD/svg10.dtd">
<svg version="1.0" xmlns="http://www.w3.org/2000/svg" width="258px" height="258px" viewBox="0 0 2580 2580" preserveAspectRatio="xMidYMid meet">
<g id="layer1" fill="#df9412" stroke="none">
 <path d="M894 1875 c-46 -31 -47 -58 -15 -241 l30 -169 -128 -130 c-71 -71 -131 -141 -134 -154 -8 -32 18 -85 47 -99 12 -5 90 -20 172 -32 82 -11 159 -25 171 -30 15 -6 43 -53 91 -153 38 -79 79 -153 92 -165 29 -27 89 -29 119 -4 11 9 54 86 95 169 59 120 80 154 98 157 13 3 91 15 173 26 159 22 192 35 209 82 18 50 -2 79 -132 204 l-126 121 27 159 c34 200 34 208 -2 245 -46 45 -73 39 -246 -51 l-153 -80 -154 80 c-158 82 -196 92 -234 65z m388 -215 c20 0 87 29 183 79 98 52 156 76 162 70 6 -6 -1 -69 -20 -179 -25 -142 -27 -175 -17 -199 6 -16 65 -80 131 -141 65 -61 119 -118 119 -125 0 -18 -10 -21 -190 -46 -85 -11 -165 -28 -178 -36 -14 -9 -53 -75 -100 -170 -42 -86 -82 -158 -89 -160 -7 -3 -43 58 -90 153 -48 96 -88 165 -103 176 -17 12 -77 25 -188 40 -90 12 -168 26 -175 30 -8 5 33 53 121 141 154 156 146 128 106 353 -14 80 -23 153 -20 161 5 11 40 -3 161 -66 98 -51 167 -81 187 -81z"/>
 </g>
<g id="layer2" fill="#3b3b3b" stroke="none">
 <path d="M1055 2400 c-421 -91 -746 -398 -862 -816 -26 -93 -28 -112 -28 -294 0 -182 2 -201 28 -294 109 -393 414 -698 802 -803 93 -25 114 -27 295 -27 181 0 202 2 295 27 388 105 693 410 802 803 26 93 28 112 28 294 0 182 -2 201 -28 295 -109 392 -417 699 -805 802 -136 36 -392 42 -527 13z m73 -590 l154 -80 153 80 c173 90 200 96 246 51 36 -37 36 -45 2 -245 l-27 -159 126 -121 c130 -125 150 -154 132 -204 -17 -47 -50 -60 -209 -82 -82 -11 -160 -23 -173 -26 -18 -3 -39 -37 -98 -157 -41 -83 -84 -160 -95 -169 -30 -25 -90 -23 -119 4 -13 12 -54 86 -92 165 -48 100 -76 147 -91 153 -12 5 -89 19 -171 30 -82 12 -160 27 -172 32 -29 14 -55 67 -47 99 3 13 63 83 134 154 l128 130 -30 169 c-32 183 -31 210 15 241 38 27 76 17 234 -65z"/>
 <path d="M934 1807 c-3 -8 6 -81 20 -161 40 -225 48 -197 -106 -353 -88 -88 -129 -136 -121 -141 7 -4 85 -18 175 -30 111 -15 171 -28 188 -40 15 -11 55 -80 103 -176 47 -95 83 -156 90 -153 7 2 47 74 89 160 47 95 86 161 100 170 13 8 93 25 178 36 180 25 190 28 190 46 0 7 -54 64 -119 125 -66 61 -125 125 -131 141 -10 24 -8 57 17 199 19 110 26 173 20 179 -6 6 -64 -18 -162 -70 -96 -50 -163 -79 -183 -79 -20 0 -89 30 -187 81 -121 63 -156 77 -161 66z"/>
 </g>

</svg>